<?xml version="1.0" standalone="no"?>
<!DOCTYPE svg PUBLIC "-//W3C//DTD SVG 20010904//EN"
 "http://www.w3.org/TR/2001/REC-SVG-20010904/DTD/svg10.dtd">
<svg version="1.0" xmlns="http://www.w3.org/2000/svg"
 width="1254.000000pt" height="1254.000000pt" viewBox="0 0 1254.000000 1254.000000"
 preserveAspectRatio="xMidYMid meet">

<g transform="translate(0.000000,1254.000000) scale(0.100000,-0.100000)"
fill="#000000" stroke="none">
<path d="M5970 11534 c-977 -55 -1871 -470 -2461 -1142 -205 -233 -341 -437
-479 -717 -159 -323 -255 -637 -307 -1005 -25 -179 -25 -646 0 -814 53 -351
139 -634 278 -906 131 -257 258 -431 478 -650 167 -166 271 -249 454 -362 50
-32 97 -61 104 -65 8 -5 -31 -42 -114 -108 -438 -347 -911 -936 -1154 -1440
-188 -388 -218 -669 -98 -906 126 -251 460 -345 704 -197 58 35 71 39 92 29
38 -17 110 -13 153 9 69 35 121 102 337 437 9 14 12 -18 13 -157 1 -243 30
-514 96 -890 49 -280 129 -668 165 -800 82 -301 305 -435 759 -457 346 -16
673 69 814 212 62 63 112 158 155 295 16 52 53 167 80 255 28 88 59 173 69
190 l18 29 200 -2 c109 -1 228 2 263 6 l64 9 33 -71 c17 -39 60 -172 94 -296
34 -124 77 -258 95 -298 92 -198 286 -297 638 -325 422 -32 775 77 907 283 44
68 62 119 131 373 33 122 96 344 139 492 198 680 271 1065 286 1515 11 303
-19 642 -82 943 -14 65 -27 123 -29 130 -3 7 44 34 126 71 578 261 1072 703
1407 1257 257 427 392 816 392 1133 0 223 -70 368 -208 428 -69 31 -181 18
-262 -29 -3 -2 -6 21 -7 50 -1 29 -9 72 -18 95 -53 132 -229 146 -334 27 -32
-37 -95 -154 -125 -236 -17 -45 -19 -47 -62 -47 -115 -3 -183 -97 -184 -253 0
-97 3 -90 -127 -254 -69 -87 -301 -340 -319 -348 -7 -3 10 36 36 86 126 239
224 560 267 867 24 176 24 596 -1 770 -93 665 -374 1263 -817 1742 -525 568
-1333 955 -2139 1027 -134 12 -426 20 -520 15z m550 -1450 c674 -85 1250 -403
1619 -893 153 -205 258 -415 326 -657 57 -201 69 -293 68 -529 0 -184 -3 -227
-27 -347 -147 -768 -701 -1329 -1549 -1568 -549 -156 -1207 -162 -1738 -16
-547 150 -979 451 -1232 857 -55 89 -157 301 -186 385 -65 195 -91 349 -98
579 -4 150 -2 203 15 315 56 367 218 720 470 1020 527 629 1447 966 2332 854z"/>
<path d="M7259 8536 c-92 -33 -148 -88 -199 -198 -41 -87 -60 -183 -60 -301 0
-317 158 -554 370 -551 148 1 252 93 316 279 26 73 28 93 28 225 1 162 -12
228 -67 338 -65 135 -183 222 -296 222 -31 -1 -72 -7 -92 -14z m107 -154 c99
-79 50 -272 -69 -272 -65 0 -127 68 -127 140 0 37 34 104 65 128 34 27 101 29
131 4z"/>
<path d="M4765 8327 c-97 -47 -157 -119 -200 -244 -104 -299 -2 -665 213 -770
113 -55 254 -26 338 70 126 145 167 410 99 642 -60 204 -173 315 -330 323 -58
2 -79 -1 -120 -21z m111 -132 c65 -27 91 -131 53 -211 -17 -34 -73 -74 -106
-74 -96 0 -152 122 -101 220 15 29 35 51 58 62 43 22 51 22 96 3z"/>
<path d="M6597 7379 c-9 -5 -33 -35 -53 -65 -46 -73 -95 -117 -169 -153 -88
-42 -153 -54 -265 -49 -135 7 -209 41 -303 141 -62 66 -71 72 -108 72 -33 0
-46 -6 -65 -28 -86 -100 77 -285 316 -359 63 -19 95 -23 200 -22 108 1 136 5
205 28 111 38 196 88 264 154 115 113 145 208 82 264 -32 29 -72 36 -104 17z"/>
</g>
	<defs>
		<linearGradient id="g" x1="0" x2="1">
			<stop offset="0" stop-color="#5E35B1" />
			<stop offset="1" stop-color="#5E35B1" />
		</linearGradient>
	</defs>
</svg>
